<svg width="33" height="33" viewBox="0 0 33 33" fill="none" xmlns="http://www.w3.org/2000/svg">
<path d="M29.7934 24.9569C29.7934 25.4369 29.6867 25.9303 29.4601 26.4103C29.2334 26.8903 28.9401 27.3436 28.5534 27.7703C27.9001 28.4903 27.1801 29.0103 26.3667 29.3436C25.5667 29.6769 24.7001 29.8503 23.7667 29.8503C22.4067 29.8503 20.9534 29.5303 19.4201 28.8769C17.8867 28.2236 16.3534 27.3436 14.8334 26.2369C13.3001 25.1169 11.8467 23.8769 10.4601 22.5036C9.08675 21.1169 7.84675 19.6636 6.74008 18.1436C5.64675 16.6236 4.76675 15.1036 4.12675 13.5969C3.48675 12.0769 3.16675 10.6236 3.16675 9.23693C3.16675 8.33026 3.32675 7.46359 3.64675 6.66359C3.96675 5.85026 4.47341 5.10359 5.18008 4.43693C6.03341 3.59693 6.96675 3.18359 7.95341 3.18359C8.32675 3.18359 8.70008 3.26359 9.03341 3.42359C9.38008 3.58359 9.68675 3.82359 9.92675 4.17026L13.0201 8.53026C13.2601 8.86359 13.4334 9.17026 13.5534 9.46359C13.6734 9.74359 13.7401 10.0236 13.7401 10.2769C13.7401 10.5969 13.6467 10.9169 13.4601 11.2236C13.2867 11.5303 13.0334 11.8503 12.7134 12.1703L11.7001 13.2236C11.5534 13.3703 11.4867 13.5436 11.4867 13.7569C11.4867 13.8636 11.5001 13.9569 11.5267 14.0636C11.5667 14.1703 11.6067 14.2503 11.6334 14.3303C11.8734 14.7703 12.2867 15.3436 12.8734 16.0369C13.4734 16.7303 14.1134 17.4369 14.8067 18.1436C15.5267 18.8503 16.2201 19.5036 16.9267 20.1036C17.6201 20.6903 18.1934 21.0903 18.6467 21.3303C18.7134 21.3569 18.7934 21.3969 18.8867 21.4369C18.9934 21.4769 19.1001 21.4903 19.2201 21.4903C19.4467 21.4903 19.6201 21.4103 19.7667 21.2636L20.7801 20.2636C21.1134 19.9303 21.4334 19.6769 21.7401 19.5169C22.0467 19.3303 22.3534 19.2369 22.6867 19.2369C22.9401 19.2369 23.2067 19.2903 23.5001 19.4103C23.7934 19.5303 24.1001 19.7036 24.4334 19.9303L28.8467 23.0636C29.1934 23.3036 29.4334 23.5836 29.5801 23.9169C29.7134 24.2503 29.7934 24.5836 29.7934 24.9569Z" stroke="#8754AF" stroke-width="2" stroke-miterlimit="10"/>
</svg>
