<svg width="30" height="30" viewBox="0 0 30 30" fill="none" xmlns="http://www.w3.org/2000/svg">
<path fill-rule="evenodd" clip-rule="evenodd" d="M8.73726 0.518634H21.1658C25.7233 0.518634 29.4515 4.1512 29.4515 8.59789V12.4971C25.3659 14.289 21.2445 23.1393 15.2375 21.2162C14.7427 21.5593 13.6024 22.9731 13.5223 24.0457C11.4422 23.7754 9.04424 21.4495 9.332 18.9412C5.86984 16.4976 8.72886 11.9868 11.4743 10.1713C17.3585 6.27994 25.5275 9.62655 20.9835 12.4089C18.2206 14.1006 12.3121 15.2182 12.9263 11.0649C11.3055 11.5211 10.268 14.47 12.2195 16.0067C10.4117 17.7397 10.7593 20.9253 12.6917 21.9713C14.646 17.0306 21.4478 17.6762 24.196 11.7783C26.2637 7.34183 23.1982 2.28668 17.0692 3.06323C12.4437 3.64937 8.10796 7.45662 5.93958 11.9722C3.73951 16.5536 4.06692 22.6886 8.58453 25.7805C13.9011 29.419 19.5613 26.0499 22.9894 21.6464C25.0101 19.051 26.7757 16.1758 29.4515 14.5151V21.4282C29.4515 25.8748 25.7229 29.5186 21.1658 29.5186H8.73726C4.1801 29.5186 0.451538 25.8804 0.451538 21.4337V8.60339C0.451538 4.15673 4.1801 0.518634 8.73726 0.518634Z" fill="#8754AF"/>
</svg>
