<svg width="45" height="44" viewBox="0 0 45 44" fill="none" xmlns="http://www.w3.org/2000/svg">
<path fill-rule="evenodd" clip-rule="evenodd" d="M6.44579 5.94579C4.57215 7.81944 3.56977 10.8956 3.56977 15.8605V28.1395C3.56977 33.1044 4.57215 36.1806 6.44579 38.0542C8.31944 39.9279 11.3956 40.9302 16.3605 40.9302H28.6395C33.6044 40.9302 36.6806 39.9279 38.5542 38.0542C40.4279 36.1806 41.4302 33.1044 41.4302 28.1395V15.8605C41.4302 10.8956 40.4279 7.81944 38.5542 5.94579C36.6806 4.07215 33.6044 3.06977 28.6395 3.06977H16.3605C11.3956 3.06977 8.31944 4.07215 6.44579 5.94579ZM4.27514 3.77514C7.00614 1.04413 11.0928 0 16.3605 0H28.6395C33.9072 0 37.9939 1.04413 40.7249 3.77514C43.4559 6.50614 44.5 10.5928 44.5 15.8605V28.1395C44.5 33.4072 43.4559 37.4939 40.7249 40.2249C37.9939 42.9559 33.9072 44 28.6395 44H16.3605C11.0928 44 7.00614 42.9559 4.27514 40.2249C1.54413 37.4939 0.5 33.4072 0.5 28.1395V15.8605C0.5 10.5928 1.54413 6.50614 4.27514 3.77514Z" fill="#8754AF"/>
<path fill-rule="evenodd" clip-rule="evenodd" d="M29.9506 14.224C30.55 14.8234 30.55 15.7952 29.9506 16.3946L16.5665 29.7788C15.9671 30.3782 14.9953 30.3782 14.3958 29.7788C13.7964 29.1794 13.7964 28.2075 14.3958 27.6081L27.78 14.224C28.3794 13.6246 29.3512 13.6246 29.9506 14.224Z" fill="#8754AF"/>
<path fill-rule="evenodd" clip-rule="evenodd" d="M16.3197 15.1645C15.7772 15.1645 15.3373 15.6043 15.3373 16.1468C15.3373 16.6893 15.7771 17.1291 16.3197 17.1291C16.8622 17.1291 17.302 16.6894 17.302 16.1468C17.302 15.6043 16.8622 15.1645 16.3197 15.1645ZM12.2676 16.1468C12.2676 13.9089 14.0818 12.0947 16.3197 12.0947C18.5577 12.0947 20.3717 13.909 20.3717 16.1468C20.3717 18.3848 18.5576 20.1989 16.3197 20.1989C14.0818 20.1989 12.2676 18.3848 12.2676 16.1468Z" fill="#8754AF"/>
<path fill-rule="evenodd" clip-rule="evenodd" d="M29.7034 26.8705C29.1609 26.8705 28.7211 27.3103 28.7211 27.8528C28.7211 28.3954 29.1609 28.8352 29.7034 28.8352C30.2459 28.8352 30.6858 28.3954 30.6858 27.8528C30.6858 27.3104 30.246 26.8705 29.7034 26.8705ZM25.6514 27.8528C25.6514 25.6149 27.4655 23.8008 29.7034 23.8008C31.9413 23.8008 33.7555 25.6149 33.7555 27.8528C33.7555 30.0907 31.9413 31.905 29.7034 31.905C27.4655 31.905 25.6514 30.0907 25.6514 27.8528Z" fill="#8754AF"/>
</svg>
