<svg width="30" height="30" viewBox="0 0 30 30" fill="none" xmlns="http://www.w3.org/2000/svg">
<path fill-rule="evenodd" clip-rule="evenodd" d="M4.05395 4.05395C2.77646 5.33143 2.09302 7.4288 2.09302 10.814V19.186C2.09302 22.5712 2.77646 24.6686 4.05395 25.946C5.33143 27.2235 7.4288 27.907 10.814 27.907H19.186C22.5712 27.907 24.6686 27.2235 25.946 25.946C27.2235 24.6686 27.907 22.5712 27.907 19.186V10.814C27.907 7.4288 27.2235 5.33143 25.946 4.05395C24.6686 2.77646 22.5712 2.09302 19.186 2.09302H10.814C7.4288 2.09302 5.33143 2.77646 4.05395 4.05395ZM2.57396 2.57396C4.43601 0.711909 7.22236 0 10.814 0H19.186C22.7776 0 25.564 0.711909 27.426 2.57396C29.2881 4.43601 30 7.22236 30 10.814V19.186C30 22.7776 29.2881 25.564 27.426 27.426C25.564 29.2881 22.7776 30 19.186 30H10.814C7.22236 30 4.43601 29.2881 2.57396 27.426C0.711909 25.564 0 22.7776 0 19.186V10.814C0 7.22236 0.711909 4.43601 2.57396 2.57396Z" fill="white"/>
<path fill-rule="evenodd" clip-rule="evenodd" d="M20.08 9.69812C20.4887 10.1068 20.4887 10.7694 20.08 11.1781L10.9544 20.3037C10.5457 20.7123 9.88311 20.7123 9.47442 20.3037C9.06574 19.895 9.06574 19.2324 9.47442 18.8237L18.6 9.69812C19.0087 9.28943 19.6713 9.28943 20.08 9.69812Z" fill="white"/>
<path fill-rule="evenodd" clip-rule="evenodd" d="M10.7862 10.3394C10.4163 10.3394 10.1164 10.6392 10.1164 11.0091C10.1164 11.379 10.4162 11.6789 10.7862 11.6789C11.1561 11.6789 11.4559 11.379 11.4559 11.0091C11.4559 10.6392 11.1561 10.3394 10.7862 10.3394ZM8.02338 11.0091C8.02338 9.4833 9.26034 8.24634 10.7862 8.24634C12.3121 8.24634 13.5489 9.48333 13.5489 11.0091C13.5489 12.535 12.312 13.7719 10.7862 13.7719C9.26037 13.7719 8.02338 12.535 8.02338 11.0091Z" fill="white"/>
<path fill-rule="evenodd" clip-rule="evenodd" d="M19.9117 18.3208C19.5418 18.3208 19.2419 18.6206 19.2419 18.9905C19.2419 19.3605 19.5418 19.6603 19.9117 19.6603C20.2816 19.6603 20.5815 19.3604 20.5815 18.9905C20.5815 18.6207 20.2816 18.3208 19.9117 18.3208ZM17.1489 18.9905C17.1489 17.4647 18.3858 16.2278 19.9117 16.2278C21.4375 16.2278 22.6745 17.4647 22.6745 18.9905C22.6745 20.5164 21.4375 21.7534 19.9117 21.7534C18.3858 21.7534 17.1489 20.5164 17.1489 18.9905Z" fill="white"/>
</svg>
