<svg width="34" height="34" viewBox="0 0 34 34" fill="none" xmlns="http://www.w3.org/2000/svg">
<path d="M32 32.1061H30.8462C29.6221 32.1061 28.4481 31.6198 27.5826 30.7543C26.717 29.8887 26.2308 28.7148 26.2308 27.4907C26.2308 28.7148 25.7445 29.8887 24.879 30.7543C24.0134 31.6198 22.8395 32.1061 21.6154 32.1061C20.3913 32.1061 19.2174 31.6198 18.3518 30.7543C17.4863 29.8887 17 28.7148 17 27.4907C17 28.7148 16.5137 29.8887 15.6482 30.7543C14.7826 31.6198 13.6087 32.1061 12.3846 32.1061C11.1605 32.1061 9.9866 31.6198 9.12105 30.7543C8.25549 29.8887 7.76923 28.7148 7.76923 27.4907C7.76923 28.7148 7.28297 29.8887 6.41742 30.7543C5.55186 31.6198 4.37792 32.1061 3.15385 32.1061H2" stroke="#717171" stroke-width="3" stroke-linecap="round" stroke-linejoin="round"/>
<path d="M6.61499 6.72132C6.61499 5.49725 7.10125 4.32331 7.9668 3.45776C8.83236 2.59222 10.0063 2.10596 11.2304 2.10596C12.4545 2.10596 13.6284 2.59222 14.4939 3.45776C15.3595 4.32331 15.8458 5.49725 15.8458 6.72132V22.8751" stroke="#717171" stroke-width="3" stroke-linecap="round" stroke-linejoin="round"/>
<path d="M22.7686 2.10596C23.9926 2.10596 25.1666 2.59222 26.0321 3.45776C26.8977 4.32331 27.3839 5.49725 27.3839 6.72132V22.8751" stroke="#717171" stroke-width="3" stroke-linecap="round" stroke-linejoin="round"/>
<path d="M15.8457 11.3359H27.3842" stroke="#717171" stroke-width="3" stroke-linecap="round" stroke-linejoin="round"/>
<path d="M15.8457 18.259H27.3842" stroke="#717171" stroke-width="3" stroke-linecap="round" stroke-linejoin="round"/>
</svg>
