<svg width="32" height="33" viewBox="0 0 32 33" fill="none" xmlns="http://www.w3.org/2000/svg">
<path d="M9.35069 27.6498C11.3064 28.8232 13.6532 29.4751 16 29.4751C23.1708 29.4751 29.0378 23.608 29.0378 16.4372C29.0378 9.26643 23.1708 3.39941 16 3.39941C8.82918 3.39941 2.96216 9.26643 2.96216 16.4372C2.96216 18.784 3.61405 21.0005 4.65707 22.9561L3.4026 27.781C3.20788 28.53 3.90108 29.2068 4.64514 28.9942L9.35069 27.6498Z" stroke="#8754AF" stroke-width="2" stroke-miterlimit="10" stroke-linecap="round" stroke-linejoin="round"/>
<path d="M21.867 20.1507C21.867 20.3619 21.82 20.579 21.7201 20.7902C21.6202 21.0014 21.4909 21.2009 21.3205 21.3886C21.0326 21.7054 20.7153 21.9342 20.3569 22.0809C20.0043 22.2276 19.6224 22.3039 19.2111 22.3039C18.6118 22.3039 17.9713 22.1631 17.2956 21.8756C16.6199 21.5881 15.9441 21.2009 15.2743 20.7139C14.5986 20.2211 13.9581 19.6754 13.347 19.0711C12.7418 18.461 12.1954 17.8215 11.7077 17.1526C11.2258 16.4838 10.838 15.8149 10.556 15.152C10.274 14.4831 10.1329 13.8436 10.1329 13.2335C10.1329 12.8345 10.2034 12.4531 10.3445 12.1011C10.4855 11.7432 10.7088 11.4147 11.0202 11.1213C11.3962 10.7517 11.8075 10.5698 12.2424 10.5698C12.4069 10.5698 12.5714 10.605 12.7183 10.6754C12.8711 10.7458 13.0062 10.8514 13.112 11.004L14.4752 12.9225C14.5809 13.0692 14.6573 13.2041 14.7102 13.3332C14.7631 13.4564 14.7925 13.5796 14.7925 13.6911C14.7925 13.8319 14.7513 13.9727 14.6691 14.1076C14.5927 14.2426 14.4811 14.3834 14.34 14.5242L13.8935 14.9877C13.8288 15.0522 13.7995 15.1285 13.7995 15.2224C13.7995 15.2693 13.8053 15.3104 13.8171 15.3573C13.8347 15.4042 13.8523 15.4395 13.8641 15.4747C13.9699 15.6683 14.152 15.9205 14.4105 16.2256C14.675 16.5307 14.957 16.8417 15.2625 17.1526C15.5798 17.4636 15.8854 17.7511 16.1968 18.0151C16.5023 18.2732 16.755 18.4492 16.9548 18.5548C16.9842 18.5666 17.0194 18.5842 17.0605 18.6018C17.1075 18.6194 17.1546 18.6252 17.2074 18.6252C17.3073 18.6252 17.3837 18.59 17.4483 18.5255L17.8949 18.0855C18.0418 17.9388 18.1828 17.8273 18.318 17.7569C18.4531 17.6748 18.5883 17.6337 18.7352 17.6337C18.8468 17.6337 18.9643 17.6572 19.0936 17.71C19.2228 17.7628 19.358 17.8391 19.5049 17.9388L21.4498 19.3176C21.6026 19.4232 21.7083 19.5464 21.773 19.693C21.8317 19.8397 21.867 19.9864 21.867 20.1507Z" stroke="#8754AF" stroke-width="2" stroke-miterlimit="10"/>
</svg>
